<?xml version="1.0" encoding="UTF-8"?>
<svg width="24px" height="20px" viewBox="0 0 24 20" version="1.1" xmlns="http://www.w3.org/2000/svg" xmlns:xlink="http://www.w3.org/1999/xlink">
    <!-- Generator: Sketch 59 (86127) - https://sketch.com -->
    <title>Icon-chinese</title>
    <desc>Created with Sketch.</desc>
    <g id="页面-1" stroke="none" stroke-width="1" fill="none" fill-rule="evenodd">
        <g id="mac版本" transform="translate(-216.000000, -40.000000)">
            <rect id="矩形" fill="#FFFFFF" x="0" y="0" width="300" height="400"></rect>
            <g id="编组-2" transform="translate(216.000000, 40.000000)" fill="#3678C8" fill-rule="nonzero">
                <g id="Icon-chinese">
                    <path d="M21.9542857,20 L12.3314286,20 C11.6245041,20 11.0514286,19.4269245 11.0514286,18.72 L11.0514286,2.85714285 C11.0514286,2.70559057 11.1116325,2.56024548 11.2187961,2.45308183 C11.3259598,2.34591819 11.4713049,2.28571428 11.6228571,2.28571428 L21.9085714,2.28571428 C22.6154959,2.28571428 23.1885717,2.8587898 23.1885717,3.56571428 L23.1885717,18.72 C23.1890113,19.40945 22.6432961,19.9753769 21.9542857,20 L21.9542857,20 Z M12.1942857,3.42857143 L12.1942857,18.72 C12.1942857,18.7957419 12.2556867,18.8571429 12.3314286,18.8571429 L21.9542857,18.8571429 C22.0300276,18.8571429 22.0914286,18.7957419 22.0914286,18.72 L22.0914286,3.56571428 C22.0914286,3.48997237 22.0300276,3.42857143 21.9542857,3.42857143 L12.1942857,3.42857143 Z M3.33714285,6.75428572 L5.46285715,6.75428572 L5.46285715,8.78857143 L3.33714285,8.78857143 L3.33714285,6.75428572 Z M6.66285715,6.75428572 L8.8,6.75428572 L8.8,8.78857143 L6.66285715,8.78857143 L6.66285715,6.75428572 Z" id="形状"></path>
                    <path d="M10.9142857,0 L1.28,0 C0.57307552,0 0,0.57307552 0,1.28 L0,16.4342857 C0,17.1412102 0.57307552,17.7142857 1.28,17.7142857 L11.6228571,17.7142857 C11.9384484,17.7142857 12.1942857,17.4584484 12.1942857,17.1428571 L12.1942857,1.28 C12.1942857,0.57307552 11.6212102,0 10.9142857,0 Z M9.98857143,10.3657143 L8.84571428,10.3657143 L8.84571428,9.89714285 L6.66285715,9.89714285 L6.66285715,12.8457143 L5.52,12.8457143 L5.52,9.89714285 L3.33714285,9.89714285 L3.33714285,10.4114286 L2.19428572,10.4114286 L2.19428572,5.64571428 L5.46285715,5.64571428 L5.46285715,4 L6.60571428,4 L6.60571428,5.63428572 L9.93142857,5.63428572 L9.98857143,10.3657143 Z M18.3085714,13.2228571 L15.92,13.2228571 L15.4285714,15.1085714 L13.9428571,15.1085714 L16.2971429,7.74857143 L18.0228571,7.74857143 L20.3885714,15.1085714 L18.8571429,15.1085714 L18.3085714,13.2228571 Z M17.9885714,12.08 L17.7714286,11.28 C17.5428571,10.5142857 17.3485714,9.66857143 17.1314286,8.86857143 C16.9485714,9.68 16.7314286,10.5142857 16.5028571,11.28 L16.2857143,12.08 L17.9885714,12.08 Z" id="形状"></path>
                </g>
            </g>
        </g>
    </g>
</svg>