<?xml version="1.0" encoding="UTF-8"?>
<svg width="24px" height="20px" viewBox="0 0 24 20" version="1.1" xmlns="http://www.w3.org/2000/svg" xmlns:xlink="http://www.w3.org/1999/xlink">
    <!-- Generator: Sketch 59 (86127) - https://sketch.com -->
    <title>icon_english</title>
    <desc>Created with Sketch.</desc>
    <g id="页面-1" stroke="none" stroke-width="1" fill="none" fill-rule="evenodd">
        <g id="mac-英文版本" transform="translate(-216.000000, -40.000000)">
            <rect id="矩形" fill="#FFFFFF" x="0" y="0" width="300" height="400"></rect>
            <g id="编组-3" transform="translate(216.000000, 40.000000)" fill-rule="nonzero">
                <g id="icon_english">
                    <g id="编组-2">
                        <g id="Icon-zhongyingwen" fill="#3678C8">
                            <path d="M21.9542857,20 L12.3314286,20 C11.6245041,20 11.0514286,19.4269245 11.0514286,18.72 L11.0514286,2.85714285 C11.0514286,2.70559057 11.1116325,2.56024548 11.2187961,2.45308183 C11.3259598,2.34591819 11.4713049,2.28571428 11.6228571,2.28571428 L21.9085714,2.28571428 C22.6154959,2.28571428 23.1885717,2.8587898 23.1885717,3.56571428 L23.1885717,18.72 C23.1890113,19.40945 22.6432961,19.9753769 21.9542857,20 L21.9542857,20 Z M12.1942857,3.42857143 L12.1942857,18.72 C12.1942857,18.7957419 12.2556867,18.8571429 12.3314286,18.8571429 L21.9542857,18.8571429 C22.0300276,18.8571429 22.0914286,18.7957419 22.0914286,18.72 L22.0914286,3.56571428 C22.0914286,3.48997237 22.0300276,3.42857143 21.9542857,3.42857143 L12.1942857,3.42857143 Z M3.33714285,6.75428572 L5.46285715,6.75428572 L5.46285715,8.78857143 L3.33714285,8.78857143 L3.33714285,6.75428572 Z M6.66285715,6.75428572 L8.8,6.75428572 L8.8,8.78857143 L6.66285715,8.78857143 L6.66285715,6.75428572 Z" id="形状"></path>
                            <path d="M10.9142857,0 L1.28,0 C0.57307552,0 0,0.57307552 0,1.28 L0,16.4342857 C0,17.1412102 0.57307552,17.7142857 1.28,17.7142857 L11.6228571,17.7142857 C11.9384484,17.7142857 12.1942857,17.4584484 12.1942857,17.1428571 L12.1942857,1.28 C12.1942857,0.57307552 11.6212102,0 10.9142857,0 Z" id="形状"></path>
                        </g>
                        <g id="中" transform="translate(13.000000, 7.000000)">
                            <polygon id="路径" fill="#3678C8" points="7.7942857 6.36571428 6.65142855 6.36571428 6.65142855 5.89714285 4.46857143 5.89714285 4.46857143 8.84571428 3.32571428 8.84571428 3.32571428 5.89714285 1.14285713 5.89714285 1.14285713 6.41142857 3.5971226e-14 6.41142857 3.5971226e-14 1.64571428 3.26857143 1.64571428 3.26857143 1.69642078e-13 4.41142855 1.69642078e-13 4.41142855 1.63428572 7.73714285 1.63428572"></polygon>
                            <path d="M1.14285713,2.75428572 L3.26857143,2.75428572 L3.26857143,4.78857143 L1.14285713,4.78857143 L1.14285713,2.75428572 Z M4.46857143,2.75428572 L6.60571428,2.75428572 L6.60571428,4.78857143 L4.46857143,4.78857143 L4.46857143,2.75428572 Z" fill="#FFFFFF"></path>
                        </g>
                    </g>
                    <g id="A" transform="translate(3.000000, 5.000000)">
                        <polygon id="路径备份" fill="#FFFFFF" points="4.36571428 5.47428572 1.97714285 5.47428572 1.48571428 7.36 9.76996262e-15 7.36 2.3542857 -1.6298074e-13 4.08 -1.6298074e-13 6.44571428 7.36 4.9142857 7.36"></polygon>
                        <path d="M4.04571428,4.33142857 L3.82857143,3.53142857 C3.6,2.7657143 3.40571428,1.92 3.18857143,1.12 C3.00571428,1.93142857 2.78857143,2.76571428 2.56,3.53142857 L2.34285713,4.33142857 L4.04571428,4.33142857 Z" id="路径备份-2" fill="#3678C8"></path>
                    </g>
                </g>
            </g>
        </g>
    </g>
</svg>