<?xml version="1.0" encoding="UTF-8"?>
<svg width="48px" height="36px" viewBox="0 0 48 36" version="1.1" xmlns="http://www.w3.org/2000/svg" xmlns:xlink="http://www.w3.org/1999/xlink">
    <!-- Generator: Sketch 59 (86127) - https://sketch.com -->
    <title>icon_signl_three</title>
    <desc>Created with Sketch.</desc>
    <g id="页面-1" stroke="none" stroke-width="1" fill="none" fill-rule="evenodd">
        <g id="设备连接首页-英文" transform="translate(-68.000000, -624.000000)" fill="#3678C8">
            <g id="编组-4备份-6" transform="translate(30.000000, 526.000000)">
                <g id="icon_signl_three" transform="translate(38.000000, 98.000000)">
                    <g>
                        <path d="M23.9993978,13 C21.2377454,13 19,15.2382325 19,18 C19,20.7617675 21.2377454,23 23.9993978,23 C26.7610502,23 29,20.7617675 29,18 C29,15.2382325 26.7610502,13 23.9993978,13" id="Fill-1"></path>
                        <path d="M32.4935831,7.54489444 C31.7042818,6.81836852 30.4759317,6.81836852 29.6878637,7.54489444 L29.5855012,7.64489718 C28.8048329,8.42564145 28.8048329,9.67507325 29.5855012,10.4546127 C31.6512506,12.4426189 32.8167033,15.1619705 32.8167033,18.0006024 C32.8167033,20.8380295 31.6512506,23.5573811 29.5855012,25.5453873 C28.8048329,26.3261316 28.8048329,27.5755634 29.5855012,28.3551028 L29.6878637,28.4551056 C30.4759317,29.1816315 31.7042818,29.1816315 32.4935831,28.4551056 C35.375766,25.7056327 37,21.9308305 37,17.9909636 C37,14.048687 35.375766,10.2750897 32.4935831,7.52441195 L32.4935831,7.54489444 Z" id="Fill-3"></path>
                        <path d="M18.3983765,7.67292407 L18.2966764,7.55282228 C17.5186093,6.82380439 16.2969827,6.81419625 15.5091132,7.53360599 C12.6272017,10.2767309 11,14.0515303 11,17.9956732 C11,21.9386151 12.6272017,25.7134144 15.5091132,28.4577404 C16.2920815,29.1807532 17.5124828,29.1807532 18.2966764,28.4577404 L18.3983765,28.3580559 C19.173993,27.5797963 19.173993,26.3343407 18.3983765,25.5572821 C16.3447695,23.5744015 15.1880839,20.863704 15.1880839,18.0353068 C15.1880839,15.2057085 16.3447695,12.4962121 18.3983765,10.5133315 C18.7831215,10.1386139 19,9.62698025 19,9.09372829 C19,8.56047632 18.7831215,8.04884268 18.3983765,7.67292407" id="Fill-5"></path>
                        <path d="M4.1370869,18.0305011 C4.16034272,12.540906 6.43206854,7.29171362 10.4381885,3.47532116 C11.1872705,2.70122455 11.1872705,1.48598903 10.4381885,0.713094433 L10.2350061,0.572458869 C9.44553244,-0.190819623 8.17992656,-0.190819623 7.38922889,0.572458869 C2.66095471,5.17617008 0,11.4518819 0,18.0004508 C0,24.5490196 2.66095471,30.8247314 7.38922889,35.4284426 C8.17992656,36.1905191 9.44553244,36.1905191 10.2350061,35.4284426 L10.3574051,35.3082413 C11.1052632,34.5341447 11.1052632,33.3189092 10.3574051,32.5448126 C6.39045288,28.7248141 4.14932681,23.4948539 4.1370869,18.0305011" id="Fill-7"></path>
                        <path d="M40.5029325,0.572134115 C39.6996331,-0.190711372 38.4151002,-0.190711372 37.6118008,0.572134115 L37.5707654,0.671844628 C36.8097449,1.4455021 36.8097449,2.66004822 37.5707654,3.43370569 C41.6121323,7.26475177 43.8889762,12.5109663 43.8889762,17.9902392 C43.8889762,23.4683107 41.6121323,28.7145253 37.5707654,32.5467727 C36.8097449,33.3192288 36.8097449,34.5349763 37.5707654,35.3074324 L37.5707654,35.4287669 C38.3740648,36.190411 39.6585977,36.190411 40.4618971,35.4287669 C45.277963,30.8312713 47.992518,24.5579184 48,18.0082592 C48.0086835,11.4598013 45.3078069,5.17924032 40.5029325,0.572134115" id="Fill-9"></path>
                    </g>
                </g>
            </g>
        </g>
    </g>
</svg>