<?xml version="1.0" encoding="UTF-8"?>
<svg width="44px" height="44px" viewBox="0 0 44 44" version="1.1" xmlns="http://www.w3.org/2000/svg" xmlns:xlink="http://www.w3.org/1999/xlink">
    <!-- Generator: Sketch 59 (86127) - https://sketch.com -->
    <title>icon_signout</title>
    <desc>Created with Sketch.</desc>
    <g id="页面-1" stroke="none" stroke-width="1" fill="none" fill-rule="evenodd">
        <g id="无连接状态" transform="translate(-676.000000, -74.000000)">
            <g id="icon_signout" transform="translate(676.000000, 74.000000)">
                <g>
                    <g id="编组" fill="#FFFFFF">
                        <g id="back备份">
                            <rect id="矩形" x="0" y="0" width="44" height="44"></rect>
                        </g>
                    </g>
                    <g id="Icon-tuichu" transform="translate(8.000000, 3.000000)" fill="#3678C8" fill-rule="nonzero">
                        <path d="M17.9968233,21 C16.8935857,20.9970538 16.0007452,20.1857538 16,19.1855408 L16,1.813225 C16,1.16542211 16.3811978,0.566827542 17,0.242926089 C17.6188021,-0.0809753631 18.3811979,-0.0809753631 19,0.242926089 C19.6188022,0.566827542 20,1.16542211 20,1.813225 L20,19.1855408 C19.9979992,20.187529 19.1020248,20.9990944 17.9968233,21 L17.9968233,21 Z" id="路径"></path>
                        <path d="M17.9987415,38 C8.07313151,38 0,29.6515049 0,19.3873458 C0,13.4876558 2.78417117,7.86906873 7.44389289,4.36569401 C8.27043156,3.74633485 9.42587771,3.93623199 10.0260065,4.7900634 C10.6261354,5.64389481 10.4441781,6.83902588 9.61938055,7.46086225 C5.85737256,10.289243 3.69782563,14.6380954 3.69782563,19.3873458 C3.69782563,27.5427995 10.1160596,34.1738775 17.999161,34.1738775 C25.8822624,34.1738775 32.3009159,27.5410643 32.3009159,19.3873458 C32.3009159,14.6380954 30.1413689,10.289243 26.376844,7.45782562 C25.7317301,6.96977562 25.4625884,6.10852793 25.7095109,5.32237389 C25.9564335,4.53621984 26.6635957,4.00289407 27.4629099,4 C27.8549486,4.00063814 28.2367359,4.12955864 28.5535902,4.36829681 C33.2158288,7.87123774 36,13.4876558 36,19.386912 C36.0004195,29.6515049 27.9243515,38 17.9987415,38 Z" id="路径"></path>
                    </g>
                </g>
            </g>
        </g>
    </g>
</svg>