<?xml version="1.0" encoding="UTF-8"?>
<svg width="690px" height="338px" viewBox="0 0 690 338" version="1.1" xmlns="http://www.w3.org/2000/svg" xmlns:xlink="http://www.w3.org/1999/xlink">
    <!-- Generator: Sketch 59 (86127) - https://sketch.com -->
    <title>pic_top_bg</title>
    <desc>Created with Sketch.</desc>
    <defs>
        <linearGradient x1="146.118983%" y1="50%" x2="47.0788463%" y2="50%" id="linearGradient-1">
            <stop stop-color="#818FA8" offset="0%"></stop>
            <stop stop-color="#3B516F" offset="100%"></stop>
        </linearGradient>
    </defs>
    <g id="页面-1" stroke="none" stroke-width="1" fill="none" fill-rule="evenodd">
        <g id="设备连接首页" transform="translate(-30.000000, -158.000000)">
            <g id="编组-4" transform="translate(30.000000, 158.000000)">
                <g id="pic_top_bg">
                    <rect id="bg" fill="#232D3E" x="0" y="0" width="690" height="338" rx="6"></rect>
                    <path d="M36,68 C39.3137085,68 42,70.6862915 42,74 C42,77.3137085 39.3137085,80 36,80 C32.6862915,80 30,77.3137085 30,74 C30,70.6862915 32.6862915,68 36,68 Z M55,68 C58.3137085,68 61,70.6862915 61,74 C61,77.3137085 58.3137085,80 55,80 C51.6862915,80 49,77.3137085 49,74 C49,70.6862915 51.6862915,68 55,68 Z M74,68 C77.3137085,68 80,70.6862915 80,74 C80,77.3137085 77.3137085,80 74,80 C70.6862915,80 68,77.3137085 68,74 C68,70.6862915 70.6862915,68 74,68 Z M93,68 C96.3137085,68 99,70.6862915 99,74 C99,77.3137085 96.3137085,80 93,80 C89.6862915,80 87,77.3137085 87,74 C87,70.6862915 89.6862915,68 93,68 Z M112,68 C115.313708,68 118,70.6862915 118,74 C118,77.3137085 115.313708,80 112,80 C108.686292,80 106,77.3137085 106,74 C106,70.6862915 108.686292,68 112,68 Z M131,68 C134.313708,68 137,70.6862915 137,74 C137,77.3137085 134.313708,80 131,80 C127.686292,80 125,77.3137085 125,74 C125,70.6862915 127.686292,68 131,68 Z M36,49 C39.3137085,49 42,51.6862915 42,55 C42,58.3137085 39.3137085,61 36,61 C32.6862915,61 30,58.3137085 30,55 C30,51.6862915 32.6862915,49 36,49 Z M55,49 C58.3137085,49 61,51.6862915 61,55 C61,58.3137085 58.3137085,61 55,61 C51.6862915,61 49,58.3137085 49,55 C49,51.6862915 51.6862915,49 55,49 Z M74,49 C77.3137085,49 80,51.6862915 80,55 C80,58.3137085 77.3137085,61 74,61 C70.6862915,61 68,58.3137085 68,55 C68,51.6862915 70.6862915,49 74,49 Z M93,49 C96.3137085,49 99,51.6862915 99,55 C99,58.3137085 96.3137085,61 93,61 C89.6862915,61 87,58.3137085 87,55 C87,51.6862915 89.6862915,49 93,49 Z M112,49 C115.313708,49 118,51.6862915 118,55 C118,58.3137085 115.313708,61 112,61 C108.686292,61 106,58.3137085 106,55 C106,51.6862915 108.686292,49 112,49 Z M131,49 C134.313708,49 137,51.6862915 137,55 C137,58.3137085 134.313708,61 131,61 C127.686292,61 125,58.3137085 125,55 C125,51.6862915 127.686292,49 131,49 Z M36,30 C39.3137085,30 42,32.6862915 42,36 C42,39.3137085 39.3137085,42 36,42 C32.6862915,42 30,39.3137085 30,36 C30,32.6862915 32.6862915,30 36,30 Z M55,30 C58.3137085,30 61,32.6862915 61,36 C61,39.3137085 58.3137085,42 55,42 C51.6862915,42 49,39.3137085 49,36 C49,32.6862915 51.6862915,30 55,30 Z M74,30 C77.3137085,30 80,32.6862915 80,36 C80,39.3137085 77.3137085,42 74,42 C70.6862915,42 68,39.3137085 68,36 C68,32.6862915 70.6862915,30 74,30 Z M93,30 C96.3137085,30 99,32.6862915 99,36 C99,39.3137085 96.3137085,42 93,42 C89.6862915,42 87,39.3137085 87,36 C87,32.6862915 89.6862915,30 93,30 Z M112,30 C115.313708,30 118,32.6862915 118,36 C118,39.3137085 115.313708,42 112,42 C108.686292,42 106,39.3137085 106,36 C106,32.6862915 108.686292,30 112,30 Z M131,30 C134.313708,30 137,32.6862915 137,36 C137,39.3137085 134.313708,42 131,42 C127.686292,42 125,39.3137085 125,36 C125,32.6862915 127.686292,30 131,30 Z" id="pic_top_left" fill="url(#linearGradient-1)" opacity="0.26"></path>
                    <path d="M559,296 C562.313708,296 565,298.686292 565,302 C565,305.313708 562.313708,308 559,308 C555.686292,308 553,305.313708 553,302 C553,298.686292 555.686292,296 559,296 Z M578,296 C581.313708,296 584,298.686292 584,302 C584,305.313708 581.313708,308 578,308 C574.686292,308 572,305.313708 572,302 C572,298.686292 574.686292,296 578,296 Z M597,296 C600.313708,296 603,298.686292 603,302 C603,305.313708 600.313708,308 597,308 C593.686292,308 591,305.313708 591,302 C591,298.686292 593.686292,296 597,296 Z M616,296 C619.313708,296 622,298.686292 622,302 C622,305.313708 619.313708,308 616,308 C612.686292,308 610,305.313708 610,302 C610,298.686292 612.686292,296 616,296 Z M635,296 C638.313708,296 641,298.686292 641,302 C641,305.313708 638.313708,308 635,308 C631.686292,308 629,305.313708 629,302 C629,298.686292 631.686292,296 635,296 Z M654,296 C657.313708,296 660,298.686292 660,302 C660,305.313708 657.313708,308 654,308 C650.686292,308 648,305.313708 648,302 C648,298.686292 650.686292,296 654,296 Z M559,277 C562.313708,277 565,279.686292 565,283 C565,286.313708 562.313708,289 559,289 C555.686292,289 553,286.313708 553,283 C553,279.686292 555.686292,277 559,277 Z M578,277 C581.313708,277 584,279.686292 584,283 C584,286.313708 581.313708,289 578,289 C574.686292,289 572,286.313708 572,283 C572,279.686292 574.686292,277 578,277 Z M597,277 C600.313708,277 603,279.686292 603,283 C603,286.313708 600.313708,289 597,289 C593.686292,289 591,286.313708 591,283 C591,279.686292 593.686292,277 597,277 Z M616,277 C619.313708,277 622,279.686292 622,283 C622,286.313708 619.313708,289 616,289 C612.686292,289 610,286.313708 610,283 C610,279.686292 612.686292,277 616,277 Z M635,277 C638.313708,277 641,279.686292 641,283 C641,286.313708 638.313708,289 635,289 C631.686292,289 629,286.313708 629,283 C629,279.686292 631.686292,277 635,277 Z M654,277 C657.313708,277 660,279.686292 660,283 C660,286.313708 657.313708,289 654,289 C650.686292,289 648,286.313708 648,283 C648,279.686292 650.686292,277 654,277 Z M559,258 C562.313708,258 565,260.686292 565,264 C565,267.313708 562.313708,270 559,270 C555.686292,270 553,267.313708 553,264 C553,260.686292 555.686292,258 559,258 Z M578,258 C581.313708,258 584,260.686292 584,264 C584,267.313708 581.313708,270 578,270 C574.686292,270 572,267.313708 572,264 C572,260.686292 574.686292,258 578,258 Z M597,258 C600.313708,258 603,260.686292 603,264 C603,267.313708 600.313708,270 597,270 C593.686292,270 591,267.313708 591,264 C591,260.686292 593.686292,258 597,258 Z M616,258 C619.313708,258 622,260.686292 622,264 C622,267.313708 619.313708,270 616,270 C612.686292,270 610,267.313708 610,264 C610,260.686292 612.686292,258 616,258 Z M635,258 C638.313708,258 641,260.686292 641,264 C641,267.313708 638.313708,270 635,270 C631.686292,270 629,267.313708 629,264 C629,260.686292 631.686292,258 635,258 Z M654,258 C657.313708,258 660,260.686292 660,264 C660,267.313708 657.313708,270 654,270 C650.686292,270 648,267.313708 648,264 C648,260.686292 650.686292,258 654,258 Z" id="pic_top_right" fill="url(#linearGradient-1)" opacity="0.26" transform="translate(606.500000, 283.000000) scale(-1, 1) translate(-606.500000, -283.000000) "></path>
                </g>
            </g>
        </g>
    </g>
</svg>