<?xml version="1.0" encoding="UTF-8"?>
<svg width="107px" height="50px" viewBox="0 0 107 50" version="1.1" xmlns="http://www.w3.org/2000/svg" xmlns:xlink="http://www.w3.org/1999/xlink">
    <!-- Generator: Sketch 59 (86127) - https://sketch.com -->
    <title>pic_top_left</title>
    <desc>Created with Sketch.</desc>
    <defs>
        <linearGradient x1="146.118983%" y1="50%" x2="47.0788463%" y2="50%" id="linearGradient-1">
            <stop stop-color="#818FA8" offset="0%"></stop>
            <stop stop-color="#3B516F" offset="100%"></stop>
        </linearGradient>
    </defs>
    <g id="页面-1" stroke="none" stroke-width="1" fill="none" fill-rule="evenodd" opacity="0.26">
        <g id="无连接状态" transform="translate(-60.000000, -188.000000)" fill="url(#linearGradient-1)">
            <g id="pic_top_left" transform="translate(60.000000, 188.000000)">
                <path d="M6,38 C9.3137085,38 12,40.6862915 12,44 C12,47.3137085 9.3137085,50 6,50 C2.6862915,50 0,47.3137085 0,44 C0,40.6862915 2.6862915,38 6,38 Z M25,38 C28.3137085,38 31,40.6862915 31,44 C31,47.3137085 28.3137085,50 25,50 C21.6862915,50 19,47.3137085 19,44 C19,40.6862915 21.6862915,38 25,38 Z M44,38 C47.3137085,38 50,40.6862915 50,44 C50,47.3137085 47.3137085,50 44,50 C40.6862915,50 38,47.3137085 38,44 C38,40.6862915 40.6862915,38 44,38 Z M63,38 C66.3137085,38 69,40.6862915 69,44 C69,47.3137085 66.3137085,50 63,50 C59.6862915,50 57,47.3137085 57,44 C57,40.6862915 59.6862915,38 63,38 Z M82,38 C85.3137085,38 88,40.6862915 88,44 C88,47.3137085 85.3137085,50 82,50 C78.6862915,50 76,47.3137085 76,44 C76,40.6862915 78.6862915,38 82,38 Z M101,38 C104.313708,38 107,40.6862915 107,44 C107,47.3137085 104.313708,50 101,50 C97.6862915,50 95,47.3137085 95,44 C95,40.6862915 97.6862915,38 101,38 Z M6,19 C9.3137085,19 12,21.6862915 12,25 C12,28.3137085 9.3137085,31 6,31 C2.6862915,31 0,28.3137085 0,25 C0,21.6862915 2.6862915,19 6,19 Z M25,19 C28.3137085,19 31,21.6862915 31,25 C31,28.3137085 28.3137085,31 25,31 C21.6862915,31 19,28.3137085 19,25 C19,21.6862915 21.6862915,19 25,19 Z M44,19 C47.3137085,19 50,21.6862915 50,25 C50,28.3137085 47.3137085,31 44,31 C40.6862915,31 38,28.3137085 38,25 C38,21.6862915 40.6862915,19 44,19 Z M63,19 C66.3137085,19 69,21.6862915 69,25 C69,28.3137085 66.3137085,31 63,31 C59.6862915,31 57,28.3137085 57,25 C57,21.6862915 59.6862915,19 63,19 Z M82,19 C85.3137085,19 88,21.6862915 88,25 C88,28.3137085 85.3137085,31 82,31 C78.6862915,31 76,28.3137085 76,25 C76,21.6862915 78.6862915,19 82,19 Z M101,19 C104.313708,19 107,21.6862915 107,25 C107,28.3137085 104.313708,31 101,31 C97.6862915,31 95,28.3137085 95,25 C95,21.6862915 97.6862915,19 101,19 Z M6,0 C9.3137085,0 12,2.6862915 12,6 C12,9.3137085 9.3137085,12 6,12 C2.6862915,12 0,9.3137085 0,6 C0,2.6862915 2.6862915,0 6,0 Z M25,0 C28.3137085,0 31,2.6862915 31,6 C31,9.3137085 28.3137085,12 25,12 C21.6862915,12 19,9.3137085 19,6 C19,2.6862915 21.6862915,0 25,0 Z M44,0 C47.3137085,0 50,2.6862915 50,6 C50,9.3137085 47.3137085,12 44,12 C40.6862915,12 38,9.3137085 38,6 C38,2.6862915 40.6862915,0 44,0 Z M63,0 C66.3137085,0 69,2.6862915 69,6 C69,9.3137085 66.3137085,12 63,12 C59.6862915,12 57,9.3137085 57,6 C57,2.6862915 59.6862915,0 63,0 Z M82,0 C85.3137085,0 88,2.6862915 88,6 C88,9.3137085 85.3137085,12 82,12 C78.6862915,12 76,9.3137085 76,6 C76,2.6862915 78.6862915,0 82,0 Z M101,0 C104.313708,0 107,2.6862915 107,6 C107,9.3137085 104.313708,12 101,12 C97.6862915,12 95,9.3137085 95,6 C95,2.6862915 97.6862915,0 101,0 Z"></path>
            </g>
        </g>
    </g>
</svg>