<?xml version="1.0" encoding="UTF-8"?>
<svg width="72px" height="70px" viewBox="0 0 72 70" version="1.1" xmlns="http://www.w3.org/2000/svg" xmlns:xlink="http://www.w3.org/1999/xlink">
    <!-- Generator: Sketch 59 (86127) - https://sketch.com -->
    <title>pic_equipment</title>
    <desc>Created with Sketch.</desc>
    <g id="页面-1" stroke="none" stroke-width="1" fill="none" fill-rule="evenodd">
        <g id="客户端" transform="translate(-164.000000, -98.000000)">
            <g id="编组-10" transform="translate(164.000000, 98.000000)">
                <g id="pic_equipment">
                    <path d="M66.5582905,65.8552632 L5.8917095,65.8552632 C5.12407138,65.8552632 4.5,65.2100067 4.5,64.4160344 L4.5,62.6892287 C4.5,61.8959284 5.12407138,61.25 5.8917095,61.25 L66.5582905,61.25 C67.3254955,61.25 67.95,61.8959284 67.95,62.6892287 L67.95,64.4160344 L67.95,64.4160344 C67.95,65.2100067 67.3254955,65.8552632 66.5582905,65.8552632 M71.6817363,60.461384 L69.782928,43.046107 C69.7098803,39.8418964 67.1301558,37.2579264 63.9694976,37.2579264 L60.9230438,37.2579264 L60.9230438,2.25781654 C60.9230438,1.01074628 59.9311901,0 58.7076956,0 C57.4839857,0 56.4923475,1.01074628 56.4923475,2.25781654 L56.4923475,37.2579264 L38.7691313,37.2579264 L38.7691313,2.25781654 C38.7691313,1.01074628 37.7772777,0 36.5535677,0 C35.3300732,0 34.3382195,1.01074628 34.3382195,2.25781654 L34.3382195,37.2579264 L16.6150034,37.2579264 L16.6150034,2.25781654 C16.6150034,1.01074628 15.6231497,0 14.3996552,0 C13.1761607,0 12.1843071,1.01074628 12.1843071,2.25781654 L12.1843071,37.2579264 L7.75361078,37.2579264 C4.59015137,37.2579264 2.00848751,39.8460694 1.93974944,43.0540138 L0.0118513907,61.8626359 C-0.00129287899,61.9911206 -0.00129287899,62.1178482 0.00667987478,62.2428188 C0.00560247562,62.2885023 0,62.3333072 0,62.3792103 L0,64.0725727 C0,67.3411355 2.60859884,70 5.8153697,70 L66.1846303,70 C69.3911857,70 72,67.3411355 72,64.0725727 L72,62.3792103 C72,61.7075757 71.8845028,61.0638345 71.6817363,60.461384" id="Fill-1" fill="#FFFFFF"></path>
                    <g id="编组" transform="translate(15.000000, 45.000000)">
                        <path d="M13.2111111,1.8 L13.2111111,1.8 C13.2111111,2.29697165 12.8036942,2.7 12.3,2.7 C11.7968929,2.7 11.3888889,2.29697165 11.3888889,1.8 C11.3888889,1.30302835 11.7968929,0.9 12.3,0.9 C12.8036942,0.9 13.2111111,1.30302835 13.2111111,1.8" id="Fill-1" fill="#000000"></path>
                        <path d="M6.38967883,7.71261158 L6.38967883,1.8376938 C6.38967883,1.81691389 6.37102793,1.8 6.34811397,1.8 L5.05267597,1.8 C5.02976201,1.8 5.01111111,1.81691389 5.01111111,1.8376938 L5.01111111,7.75030539 L5.01111111,8.9937177 L5.01111111,9 L9.06954626,9 C9.09246021,9 9.11111111,8.98308611 9.11111111,8.9623062 L9.11111111,7.78751594 C9.11111111,7.76673602 9.09246021,7.75030539 9.06954626,7.75030539 L6.4307108,7.75030539 C6.40779684,7.75030539 6.38967883,7.7333915 6.38967883,7.71261158" id="Fill-3" fill="#000000"></path>
                        <path d="M2.78022092,7.68861824 C2.75730994,7.68861824 2.73919428,7.67086945 2.73919428,7.6490638 L2.73919428,4.46138176 L2.73919428,3.18904733 C2.73919428,3.16724168 2.72054581,3.15 2.69763483,3.15 L1.36080572,3.15 L0.0415594542,3.15 C0.018648473,3.15 0,3.16724168 0,3.18904733 L0,4.42233443 C0,4.44414008 0.018648473,4.46138176 0.0415594542,4.46138176 L1.31977908,4.46138176 C1.34269006,4.46138176 1.36080572,4.47913055 1.36080572,4.5009362 L1.36080572,7.6490638 C1.36080572,7.67086945 1.34269006,7.68861824 1.31977908,7.68861824 L0.0415594542,7.68861824 C0.018648473,7.68861824 0,7.70636702 0,7.72817268 L0,8.96095267 C0,8.98275832 0.018648473,9 0.0415594542,9 L4.05790773,9 C4.08081871,9 4.1,8.98275832 4.1,8.96095267 L4.1,7.72817268 C4.1,7.70636702 4.08081871,7.68861824 4.05790773,7.68861824 L2.78022092,7.68861824 Z" id="Fill-5" fill="#000000"></path>
                        <path d="M13.7135543,7.68861824 C13.6911761,7.68861824 13.6725276,7.67086945 13.6725276,7.6490638 L13.6725276,4.46138176 L13.6725276,3.18904733 C13.6725276,3.16724168 13.6538791,3.15 13.631501,3.15 L12.2941391,3.15 L10.9748928,3.15 C10.9519818,3.15 10.9333333,3.16724168 10.9333333,3.18904733 L10.9333333,4.42233443 C10.9333333,4.44414008 10.9519818,4.46138176 10.9748928,4.46138176 L12.2531124,4.46138176 C12.2760234,4.46138176 12.2941391,4.47913055 12.2941391,4.5009362 L12.2941391,7.6490638 C12.2941391,7.67086945 12.2760234,7.68861824 12.2531124,7.68861824 L10.9748928,7.68861824 C10.9519818,7.68861824 10.9333333,7.70636702 10.9333333,7.72817268 L10.9333333,8.96095267 C10.9333333,8.98275832 10.9519818,9 10.9748928,9 L14.9917739,9 C15.014152,9 15.0333333,8.98275832 15.0333333,8.96095267 L15.0333333,7.72817268 C15.0333333,7.70636702 15.014152,7.68861824 14.9917739,7.68861824 L13.7135543,7.68861824 Z" id="Fill-7" fill="#000000"></path>
                        <path d="M38.7222222,1.83772419 L38.7222222,8.96227581 C38.7222222,8.98258884 38.7037323,9 38.6810162,9 L37.3962333,9 C37.3740454,9 37.3555556,8.98258884 37.3555556,8.96227581 L37.3555556,1.83772419 C37.3555556,1.81692752 37.3740454,1.8 37.3962333,1.8 L38.6810162,1.8 C38.7037323,1.8 38.7222222,1.81692752 38.7222222,1.83772419" id="Fill-9" fill="#3678C8"></path>
                        <path d="M41,1.83772419 L41,8.96227581 C41,8.98258884 40.9815101,9 40.958794,9 L39.6740111,9 C39.6518232,9 39.6333333,8.98258884 39.6333333,8.96227581 L39.6333333,1.83772419 C39.6333333,1.81692752 39.6518232,1.8 39.6740111,1.8 L40.958794,1.8 C40.9815101,1.8 41,1.81692752 41,1.83772419" id="Fill-11" fill="#3678C8"></path>
                        <path d="M31.7512946,5.22829504 L32.5350688,3.02660218 C32.5475891,2.99274486 32.5966689,2.99274486 32.6091892,3.02660218 L33.3929634,5.22829504 C33.4014772,5.25247884 33.3829471,5.27811366 33.3559031,5.27811366 L31.787854,5.27811366 C31.7618117,5.27811366 31.7422799,5.25247884 31.7512946,5.22829504 M34.7641926,9 L35.9501205,9 C35.9771644,9 35.9961954,8.9738815 35.9861791,8.94921403 L33.2166768,1.8241838 C33.210667,1.80967352 33.1966442,1.8 33.1806182,1.8 L31.9641406,1.8 C31.9481146,1.8 31.9330901,1.80967352 31.928082,1.8241838 L29.1580789,8.94921403 C29.1485634,8.9738815 29.1670936,9 29.1946383,9 L30.3805663,9 C30.3970931,9 30.4116167,8.98984281 30.4171257,8.97484885 L31.2795277,6.55453446 C31.2845358,6.53905683 31.2995602,6.52889964 31.3160871,6.52889964 L33.8281709,6.52889964 C33.8451986,6.52889964 33.8597222,6.53905683 33.8652311,6.55453446 L34.7271323,8.97484885 C34.7326413,8.98984281 34.7471649,9 34.7641926,9" id="Fill-13" fill="#3678C8"></path>
                        <path d="M27.2661274,4.03919273 L25.8261825,4.03919273 C25.8160918,4.03919273 25.8060011,4.04306761 25.7994421,4.04936428 L24.1491058,5.56879919 C24.123879,5.59204844 24.0825071,5.5746115 24.0825071,5.54167508 L24.0825071,1.83778002 C24.0825071,1.81695257 24.0653529,1.8 24.0436578,1.8 L22.8171316,1.8 C22.7959411,1.8 22.7777778,1.81695257 22.7777778,1.83778002 L22.7777778,6.83152371 L22.7777778,7.07176589 L22.7777778,8.96221998 C22.7777778,8.98304743 22.7959411,9 22.8171316,9 L24.0436578,9 C24.0653529,9 24.0825071,8.98304743 24.0825071,8.96221998 L24.0825071,7.07612513 C24.0825071,7.06546922 24.0870479,7.05578204 24.0951205,7.04851665 L24.5360847,6.64262361 C24.5537434,6.6261554 24.583511,6.63003027 24.596629,6.65037336 L26.0597825,8.98159435 C26.0673505,8.99273461 26.0794594,9 26.0935864,9 L27.2943814,9 C27.3246535,9 27.3433213,8.96754793 27.3276807,8.94284561 L25.4059042,5.88217962 C25.3968226,5.86716448 25.3993453,5.84779011 25.4124632,5.83568113 L27.2933723,4.10409687 C27.3185991,4.08036327 27.3014449,4.03919273 27.2661274,4.03919273" id="Fill-15" fill="#000000"></path>
                        <path d="M18.8473164,2.7 C18.5103458,2.7 18.2057204,2.77112988 17.9233023,2.92550807 C17.6780572,3.05406875 17.4506744,3.2495442 17.2488782,3.49507402 C17.2261882,3.52299908 17.1841875,3.50666555 17.1841875,3.46872961 L17.1841875,2.96871289 C17.1841875,2.9460567 17.1672907,2.92814251 17.1465318,2.92814251 L15.9821002,2.92814251 C15.9613413,2.92814251 15.9444444,2.9460567 15.9444444,2.96871289 L15.9444444,8.95890273 C15.9444444,8.98103203 15.9613413,9 15.9821002,9 L17.1465318,9 C17.1672907,9 17.1841875,8.98103203 17.1841875,8.95890273 L17.1841875,5.31283767 L17.1841875,5.30756879 C17.2281192,4.82230493 17.3797078,4.44347244 17.6408842,4.18266288 C17.8692325,3.94609016 18.140547,3.82754035 18.4451723,3.82754035 C19.2924267,3.82754035 19.716778,4.32544953 19.716778,5.33391319 L19.716778,8.95890273 C19.716778,8.98103203 19.7336748,9 19.7544337,9 L20.9183826,9 C20.9391415,9 20.9555556,8.98103203 20.9555556,8.95890273 L20.9555556,5.21536339 C20.9555556,3.53037551 20.2492689,2.7 18.8473164,2.7" id="Fill-17" fill="#000000"></path>
                        <path d="M0.564438104,0.832907531 C0.0573472997,1.4248999 -0.0131858785,2.20993327 0.00177570476,2.7 C0.450623202,1.86142993 1.99861273,1.84907531 2.01624602,1.84907531 L2.73333333,1.84907531 L2.73333333,0 C1.75441831,0.0154432793 1.02450679,0.294966635 0.564438104,0.832907531" id="Fill-19" fill="#3678C8"></path>
                    </g>
                </g>
            </g>
        </g>
    </g>
</svg>